<?xml version="1.0" encoding="UTF-8"?>
<svg version="1.1" xmlns="http://www.w3.org/2000/svg" width="512" height="512">
<path d="M0 0 C1.3365287 -0.01469078 1.3365287 -0.01469078 2.70005798 -0.02967834 C31.02930163 -0.27680589 57.17994109 2.00410905 84.4453125 10.23828125 C85.69803955 10.61460693 85.69803955 10.61460693 86.97607422 10.99853516 C119.59093302 21.04331738 149.52840834 39.02739936 174.4453125 62.23828125 C175.83675916 63.45166344 177.23239889 64.66025928 178.6328125 65.86328125 C185.1320759 71.55663599 190.73301067 77.63695018 196.140625 84.3828125 C197.58642725 86.17413698 199.05707409 87.94598331 200.5625 89.6875 C232.20807149 126.6073334 252.23933452 179.11780235 252.68359375 227.79296875 C252.6933876 228.68398788 252.70318146 229.57500702 252.71327209 230.49302673 C253.23397222 290.18301748 237.46998542 346.91861502 198.4453125 393.23828125 C198.00074707 393.77163086 197.55618164 394.30498047 197.09814453 394.85449219 C188.22536736 405.48522354 179.07675597 415.36819695 168.21484375 424.02734375 C166.40012249 425.47604929 164.60476024 426.94942113 162.83203125 428.44921875 C121.52207816 463.33317913 66.69507132 480.72710773 13.1328125 480.61328125 C12.16687164 480.61273743 11.20093079 480.6121936 10.20571899 480.6116333 C-5.69146444 480.57060916 -20.9742443 479.64585488 -36.5546875 476.23828125 C-37.54082031 476.02397461 -38.52695313 475.80966797 -39.54296875 475.58886719 C-80.68601851 466.32763679 -118.66455293 447.01341561 -149.5546875 418.23828125 C-150.94613416 417.02489906 -152.34177389 415.81630322 -153.7421875 414.61328125 C-160.23579506 408.92488103 -165.82997583 402.84849748 -171.23828125 396.11328125 C-172.72964128 394.26228465 -174.24130496 392.42737276 -175.77734375 390.61328125 C-186.48593264 377.92162035 -194.84788293 363.9027082 -202.5546875 349.23828125 C-202.90241211 348.58762695 -203.25013672 347.93697266 -203.60839844 347.26660156 C-214.77726192 326.11658788 -221.86063665 301.78641992 -225.5546875 278.23828125 C-225.73725098 277.08271729 -225.91981445 275.92715332 -226.10791016 274.73657227 C-227.70824137 263.46656388 -227.95385383 252.29750635 -227.9296875 240.92578125 C-227.92914368 239.95984039 -227.92859985 238.99389954 -227.92803955 237.99868774 C-227.88701541 222.10150431 -226.96226113 206.81872445 -223.5546875 191.23828125 C-223.34038086 190.25214844 -223.12607422 189.26601562 -222.90527344 188.25 C-213.64404304 147.10695024 -194.32982186 109.12841582 -165.5546875 78.23828125 C-164.34130531 76.84683459 -163.13270947 75.45119486 -161.9296875 74.05078125 C-123.16385022 29.67058133 -58.73818865 0.53610464 0 0 Z M-129.1484375 113.1171875 C-131.349296 115.77914135 -133.45815695 118.49366118 -135.5546875 121.23828125 C-136.33972656 122.19605469 -137.12476563 123.15382813 -137.93359375 124.140625 C-168.31340916 161.84202347 -181.8007757 212.42618877 -176.73242188 260.31445312 C-172.88331258 292.44525316 -161.88252495 324.05453165 -142.5546875 350.23828125 C-141.9683252 351.03443848 -141.9683252 351.03443848 -141.37011719 351.84667969 C-131.2711805 365.43448218 -120.03511001 377.94100261 -106.5546875 388.23828125 C-105.59691406 389.02332031 -104.63914062 389.80835938 -103.65234375 390.6171875 C-66.02228983 420.93951342 -15.27399256 434.4745491 32.52148438 429.41601562 C79.76392748 423.756607 127.3906171 401.04902707 157.4453125 363.23828125 C158.21101563 362.28695313 158.97671875 361.335625 159.765625 360.35546875 C191.63077254 320.20933205 207.19458657 269.73422904 201.49780273 218.59155273 C195.49575989 171.43264469 172.28590757 123.91584782 134.19140625 94.3359375 C133.28519531 93.64371094 132.37898438 92.95148438 131.4453125 92.23828125 C130.48753906 91.45324219 129.52976562 90.66820312 128.54296875 89.859375 C58.85995763 33.70875192 -44.60394258 38.88620943 -129.1484375 113.1171875 Z " fill="#000000" transform="translate(243.5546875,15.76171875)"/>
<path d="M0 0 C44.70242838 -1.24688655 85.55573912 14.50803547 118.09472656 45.06201172 C143.41156134 69.69894357 159.67975847 103.05028803 164.09472656 138.06201172 C164.20558594 138.89990234 164.31644531 139.73779297 164.43066406 140.60107422 C169.08394092 182.22903745 156.72383255 224.13928181 130.70556641 256.80615234 C103.11208935 290.82315416 64.83762584 310.94940566 21.40722656 315.81201172 C19.6381289 315.92641709 17.86663063 316.00587702 16.09472656 316.06201172 C15.46598633 316.08247559 14.83724609 316.10293945 14.18945312 316.12402344 C-31.91231101 317.40994171 -71.22264859 300.54266916 -105.10839844 270.08154297 C-133.59694422 242.9247788 -149.75598575 202.44007148 -151.10839844 163.48388672 C-151.8754354 117.59357989 -134.62638221 76.95614382 -103.09277344 43.93701172 C-75.7385876 17.57752354 -37.99917141 1.23677467 0 0 Z M-33.90527344 68.06201172 C-34.95199219 68.50287109 -35.99871094 68.94373047 -37.07714844 69.39794922 C-59.4468643 79.63594087 -76.93401018 100.26786556 -85.65136719 123.00830078 C-94.83232627 148.40481866 -93.75157609 175.09746963 -82.96484375 199.80273438 C-71.73003106 223.75825434 -51.56556333 241.2671782 -27.11621094 250.96826172 C-0.73930935 259.95309437 26.22937006 258.8018627 51.40722656 246.74951172 C75.45022433 234.11397487 93.55870733 213.34742199 101.84082031 187.49560547 C109.71417061 160.92673425 106.27837402 134.83126168 93.84472656 110.37451172 C80.29977925 86.27467169 58.60797626 69.58681172 32.04003906 62.06201172 C9.48665886 56.1124146 -12.77156916 58.93405009 -33.90527344 68.06201172 Z " fill="#000000" transform="translate(248.9052734375,97.93798828125)"/>
<path d="M0 0 C12.31768532 10.4442731 20.97166663 23.66457594 24.0625 39.625 C24.289375 40.759375 24.51625 41.89375 24.75 43.0625 C26.43064901 62.22189866 22.06585307 79.05881987 10.6875 94.5625 C-0.84768427 108.16677562 -15.3421049 116.63919317 -33 119.3125 C-52.46716762 120.8575133 -70.79851427 116.3376666 -85.9296875 103.5078125 C-97.10112958 93.03186876 -104.99672705 80.8105431 -107.9375 65.625 C-108.2778125 63.9234375 -108.2778125 63.9234375 -108.625 62.1875 C-110.34338908 42.59786445 -105.59415426 25.46488905 -93.9375 9.625 C-69.91869722 -18.85183814 -29.19198699 -21.38718491 0 0 Z M-60.9375 37.625 C-65.97766651 44.62523127 -66.71429338 50.123428 -65.9375 58.625 C-63.55587416 66.54649464 -57.84580259 71.41994625 -50.9375 75.625 C-44.23218453 77.86010516 -36.999585 77.53585179 -30.5625 74.625 C-24.14939207 70.99571706 -20.24113303 65.56702927 -17.9375 58.625 C-17.05315884 51.16979837 -17.50468318 44.81939223 -21.9375 38.625 C-26.35373947 33.51145956 -31.64095969 29.01327994 -38.57421875 28.38671875 C-48.35624991 28.1487436 -54.44942113 30.05557465 -60.9375 37.625 Z " fill="#000000" transform="translate(297.9375,203.375)"/>
</svg>
