<svg xmlns="http://www.w3.org/2000/svg" xmlns:xlink="http://www.w3.org/1999/xlink" width="40" zoomAndPan="magnify" viewBox="0 0 30 30.000001" height="40" preserveAspectRatio="xMidYMid meet" version="1.0"><defs><clipPath id="884c351c5f"><path d="M 0.484375 0 L 29.515625 0 L 29.515625 29.03125 L 0.484375 29.03125 Z M 0.484375 0 " clip-rule="nonzero"/></clipPath><clipPath id="f51ab9a7d4"><path d="M 15 0 C 6.984375 0 0.484375 6.5 0.484375 14.515625 C 0.484375 22.53125 6.984375 29.03125 15 29.03125 C 23.015625 29.03125 29.515625 22.53125 29.515625 14.515625 C 29.515625 6.5 23.015625 0 15 0 Z M 15 0 " clip-rule="nonzero"/></clipPath><clipPath id="3de40953b9"><path d="M 0.484375 0 L 29.515625 0 L 29.515625 29.03125 L 0.484375 29.03125 Z M 0.484375 0 " clip-rule="nonzero"/></clipPath><clipPath id="a1f9075364"><path d="M 15 0 C 6.984375 0 0.484375 6.5 0.484375 14.515625 C 0.484375 22.53125 6.984375 29.03125 15 29.03125 C 23.015625 29.03125 29.515625 22.53125 29.515625 14.515625 C 29.515625 6.5 23.015625 0 15 0 Z M 15 0 " clip-rule="nonzero"/></clipPath><clipPath id="9f7e3b8cb7"><rect x="0" width="30" y="0" height="30"/></clipPath><clipPath id="4563804e7b"><path d="M 3.386719 2.902344 L 26.613281 2.902344 L 26.613281 26.128906 L 3.386719 26.128906 Z M 3.386719 2.902344 " clip-rule="nonzero"/></clipPath><clipPath id="b37c3d90c9"><path d="M 15 2.902344 C 8.585938 2.902344 3.386719 8.101562 3.386719 14.515625 C 3.386719 20.929688 8.585938 26.128906 15 26.128906 C 21.414062 26.128906 26.613281 20.929688 26.613281 14.515625 C 26.613281 8.101562 21.414062 2.902344 15 2.902344 Z M 15 2.902344 " clip-rule="nonzero"/></clipPath><clipPath id="8576c522dc"><path d="M 0.386719 0.902344 L 23.613281 0.902344 L 23.613281 24.128906 L 0.386719 24.128906 Z M 0.386719 0.902344 " clip-rule="nonzero"/></clipPath><clipPath id="4a9ef265ae"><path d="M 12 0.902344 C 5.585938 0.902344 0.386719 6.101562 0.386719 12.515625 C 0.386719 18.929688 5.585938 24.128906 12 24.128906 C 18.414062 24.128906 23.613281 18.929688 23.613281 12.515625 C 23.613281 6.101562 18.414062 0.902344 12 0.902344 Z M 12 0.902344 " clip-rule="nonzero"/></clipPath><clipPath id="5a92990555"><rect x="0" width="24" y="0" height="25"/></clipPath><clipPath id="f61c64e870"><path d="M 6.789062 5.886719 L 22.921875 5.886719 L 22.921875 22.585938 L 6.789062 22.585938 Z M 6.789062 5.886719 " clip-rule="nonzero"/></clipPath><clipPath id="c4111003e9"><path d="M 14.855469 5.886719 C 10.398438 5.886719 6.789062 9.617188 6.789062 14.222656 C 6.789062 18.824219 10.398438 22.554688 14.855469 22.554688 C 19.308594 22.554688 22.921875 18.824219 22.921875 14.222656 C 22.921875 9.617188 19.308594 5.886719 14.855469 5.886719 Z M 14.855469 5.886719 " clip-rule="nonzero"/></clipPath><clipPath id="9df0961089"><path d="M 0.789062 0.886719 L 16.921875 0.886719 L 16.921875 17.585938 L 0.789062 17.585938 Z M 0.789062 0.886719 " clip-rule="nonzero"/></clipPath><clipPath id="cb39996fd1"><path d="M 8.855469 0.886719 C 4.398438 0.886719 0.789062 4.617188 0.789062 9.222656 C 0.789062 13.824219 4.398438 17.554688 8.855469 17.554688 C 13.308594 17.554688 16.921875 13.824219 16.921875 9.222656 C 16.921875 4.617188 13.308594 0.886719 8.855469 0.886719 Z M 8.855469 0.886719 " clip-rule="nonzero"/></clipPath><clipPath id="a0b388d7ec"><rect x="0" width="17" y="0" height="18"/></clipPath><clipPath id="f9b133ac1d"><path d="M 9.554688 9.21875 L 20.152344 9.21875 L 20.152344 19.816406 L 9.554688 19.816406 Z M 9.554688 9.21875 " clip-rule="nonzero"/></clipPath><clipPath id="37e6f4bc06"><path d="M 14.855469 9.21875 C 11.929688 9.21875 9.554688 11.589844 9.554688 14.515625 C 9.554688 17.441406 11.929688 19.816406 14.855469 19.816406 C 17.78125 19.816406 20.152344 17.441406 20.152344 14.515625 C 20.152344 11.589844 17.78125 9.21875 14.855469 9.21875 Z M 14.855469 9.21875 " clip-rule="nonzero"/></clipPath><clipPath id="e4152a7c9a"><path d="M 0.554688 0.21875 L 11.152344 0.21875 L 11.152344 10.816406 L 0.554688 10.816406 Z M 0.554688 0.21875 " clip-rule="nonzero"/></clipPath><clipPath id="89150bc013"><path d="M 5.855469 0.21875 C 2.929688 0.21875 0.554688 2.589844 0.554688 5.515625 C 0.554688 8.441406 2.929688 10.816406 5.855469 10.816406 C 8.78125 10.816406 11.152344 8.441406 11.152344 5.515625 C 11.152344 2.589844 8.78125 0.21875 5.855469 0.21875 Z M 5.855469 0.21875 " clip-rule="nonzero"/></clipPath><clipPath id="1a26275ab6"><rect x="0" width="12" y="0" height="11"/></clipPath><clipPath id="6978b71a90"><path d="M 13.441406 13.101562 L 16.269531 13.101562 L 16.269531 15.929688 L 13.441406 15.929688 Z M 13.441406 13.101562 " clip-rule="nonzero"/></clipPath><clipPath id="11dfdd9182"><path d="M 14.855469 13.101562 C 14.074219 13.101562 13.441406 13.734375 13.441406 14.515625 C 13.441406 15.296875 14.074219 15.929688 14.855469 15.929688 C 15.636719 15.929688 16.269531 15.296875 16.269531 14.515625 C 16.269531 13.734375 15.636719 13.101562 14.855469 13.101562 Z M 14.855469 13.101562 " clip-rule="nonzero"/></clipPath><clipPath id="06cbc9de71"><path d="M 0.441406 0.101562 L 3.269531 0.101562 L 3.269531 2.929688 L 0.441406 2.929688 Z M 0.441406 0.101562 " clip-rule="nonzero"/></clipPath><clipPath id="fb25de5c05"><path d="M 1.855469 0.101562 C 1.074219 0.101562 0.441406 0.734375 0.441406 1.515625 C 0.441406 2.296875 1.074219 2.929688 1.855469 2.929688 C 2.636719 2.929688 3.269531 2.296875 3.269531 1.515625 C 3.269531 0.734375 2.636719 0.101562 1.855469 0.101562 Z M 1.855469 0.101562 " clip-rule="nonzero"/></clipPath><clipPath id="d7e921b1ec"><rect x="0" width="4" y="0" height="3"/></clipPath></defs><g clip-path="url(#884c351c5f)"><g clip-path="url(#f51ab9a7d4)"><g transform="matrix(1, 0, 0, 1, 0, 0.000000000000005692)"><g clip-path="url(#9f7e3b8cb7)"><g clip-path="url(#3de40953b9)"><g clip-path="url(#a1f9075364)"><path fill="#ffffff" d="M 0.484375 0 L 29.515625 0 L 29.515625 29.03125 L 0.484375 29.03125 Z M 0.484375 0 " fill-opacity="1" fill-rule="nonzero"/></g></g></g></g></g></g><g clip-path="url(#4563804e7b)"><g clip-path="url(#b37c3d90c9)"><g transform="matrix(1, 0, 0, 1, 3, 2)"><g clip-path="url(#5a92990555)"><g clip-path="url(#8576c522dc)"><g clip-path="url(#4a9ef265ae)"><path fill="#000000" d="M 0.386719 0.902344 L 23.613281 0.902344 L 23.613281 24.128906 L 0.386719 24.128906 Z M 0.386719 0.902344 " fill-opacity="1" fill-rule="nonzero"/></g></g></g></g></g></g><g clip-path="url(#f61c64e870)"><g clip-path="url(#c4111003e9)"><g transform="matrix(1, 0, 0, 1, 6, 5)"><g clip-path="url(#a0b388d7ec)"><g clip-path="url(#9df0961089)"><g clip-path="url(#cb39996fd1)"><path fill="#ffffff" d="M 0.789062 0.886719 L 16.921875 0.886719 L 16.921875 17.585938 L 0.789062 17.585938 Z M 0.789062 0.886719 " fill-opacity="1" fill-rule="nonzero"/></g></g></g></g></g></g><g clip-path="url(#f9b133ac1d)"><g clip-path="url(#37e6f4bc06)"><g transform="matrix(1, 0, 0, 1, 9, 9)"><g clip-path="url(#1a26275ab6)"><g clip-path="url(#e4152a7c9a)"><g clip-path="url(#89150bc013)"><path fill="#000000" d="M 0.554688 0.21875 L 11.152344 0.21875 L 11.152344 10.816406 L 0.554688 10.816406 Z M 0.554688 0.21875 " fill-opacity="1" fill-rule="nonzero"/></g></g></g></g></g></g><g clip-path="url(#6978b71a90)"><g clip-path="url(#11dfdd9182)"><g transform="matrix(1, 0, 0, 1, 13, 13)"><g clip-path="url(#d7e921b1ec)"><g clip-path="url(#06cbc9de71)"><g clip-path="url(#fb25de5c05)"><path fill="#ffffff" d="M 0.441406 0.101562 L 3.269531 0.101562 L 3.269531 2.929688 L 0.441406 2.929688 Z M 0.441406 0.101562 " fill-opacity="1" fill-rule="nonzero"/></g></g></g></g></g></g></svg>